<?xml version="1.0" encoding="UTF-8" standalone="no"?>
<!-- Created with Inkscape (http://www.inkscape.org/) -->

<svg
   width="32"
   height="32"
   viewBox="0 0 8.4666665 8.4666667"
   version="1.1"
   id="svg141"
   xml:space="preserve"
   inkscape:version="1.2 (dc2aedaf03, 2022-05-15)"
   sodipodi:docname="icon_32.svg"
   inkscape:export-filename="icon_32.png"
   inkscape:export-xdpi="96"
   inkscape:export-ydpi="96"
   xmlns:inkscape="http://www.inkscape.org/namespaces/inkscape"
   xmlns:sodipodi="http://sodipodi.sourceforge.net/DTD/sodipodi-0.dtd"
   xmlns="http://www.w3.org/2000/svg"
   xmlns:svg="http://www.w3.org/2000/svg"><sodipodi:namedview
     id="namedview143"
     pagecolor="#505050"
     bordercolor="#eeeeee"
     borderopacity="1"
     inkscape:showpageshadow="0"
     inkscape:pageopacity="0"
     inkscape:pagecheckerboard="0"
     inkscape:deskcolor="#505050"
     inkscape:document-units="mm"
     showgrid="false"
     inkscape:zoom="17.071908"
     inkscape:cx="12.945243"
     inkscape:cy="24.513956"
     inkscape:window-width="1920"
     inkscape:window-height="1058"
     inkscape:window-x="-8"
     inkscape:window-y="-8"
     inkscape:window-maximized="1"
     inkscape:current-layer="layer1" /><defs
     id="defs138" /><g
     inkscape:label="Calque 1"
     inkscape:groupmode="layer"
     id="layer1"><g
       id="g3788"
       transform="matrix(0.1311135,0,0,0.12963736,0.08584719,0.10769973)"><rect
         style="fill:#3776ab;fill-opacity:1;stroke:#ffffff;stroke-width:0.0290269"
         id="rect871"
         width="11.325907"
         height="59.761875"
         x="0.023889441"
         y="2.3043115"
         ry="5.3725319"
         transform="matrix(0.99999211,0.00397178,0.00179391,0.99999839,0,0)" /><rect
         style="fill:#3776ab;fill-opacity:1;stroke:#ffffff;stroke-width:0.0290269"
         id="rect977"
         width="11.325907"
         height="59.761875"
         x="51.968376"
         y="1.3773803"
         ry="5.3725319"
         transform="matrix(0.99999211,0.00397178,0.00179391,0.99999839,0,0)" /><rect
         style="fill:#3776ab;fill-opacity:1;stroke:#3776ab;stroke-width:0.0290269;stroke-opacity:1"
         id="rect871-9"
         width="10.745076"
         height="62.992455"
         x="0.41435114"
         y="-63.538044"
         ry="5.6629581"
         transform="matrix(-0.00525718,0.99998618,-0.99999963,8.5460561e-4,0,0)" /><rect
         style="fill:#3776ab;fill-opacity:1;stroke:#3776ab;stroke-width:0.0290269;stroke-opacity:1"
         id="rect977-8"
         width="10.745076"
         height="62.992455"
         x="52.98848"
         y="-63.672932"
         ry="5.6629581"
         transform="matrix(-0.00525718,0.99998618,-0.99999963,8.5460561e-4,0,0)" /></g><g
       id="g1544"
       transform="matrix(0.00473196,0,0,0.00464244,1.9135428,1.8874482)"><circle
         cx="512"
         cy="512"
         r="512"
         style="fill:#3776ab"
         id="circle1532" /><path
         transform="translate(428.423,184.256)"
         d="m 81.7,73.2 c -129.9,0 -121.8,56.3 -121.8,56.3 l 0.1,58.4 H 84 v 17.5 H -89.2 c 0,0 -83.1,-9.4 -83.1,121.7 0,131.1 72.6,126.4 72.6,126.4 h 43.3 v -60.8 c 0,0 -2.3,-72.6 71.4,-72.6 h 123 c 0,0 69.1,1.1 69.1,-66.8 V 141.1 c 0,0 10.4,-67.9 -125.4,-67.9 z m -68.3,39.3 c 12.3,0 22.3,10 22.3,22.3 0,12.3 -10,22.3 -22.3,22.3 -12.3,0 -22.3,-10 -22.3,-22.3 0,-12.3 9.9,-22.3 22.3,-22.3 z m 72,469.8 c 129.9,0 121.8,-56.3 121.8,-56.3 l -0.1,-58.4 h -124 v -17.5 h 173.2 c 0,0 83.1,9.4 83.1,-121.7 C 339.4,197.3 266.8,202 266.8,202 h -43.3 v 60.8 c 0,0 2.3,72.6 -71.4,72.6 h -123 c 0,0 -69.1,-1.1 -69.1,66.8 v 112.2 c 0,0 -10.3,67.9 125.4,67.9 z M 153.8,543 c -12.3,0 -22.3,-10 -22.3,-22.3 0,-12.3 10,-22.3 22.3,-22.3 12.3,0 22.3,10 22.3,22.3 0,12.4 -10,22.3 -22.3,22.3 z"
         style="fill:#ffffff"
         id="path1534" /></g><g
       inkscape:label="Clip"
       id="use539"
       transform="matrix(0.52117083,0,0,0.4660785,-4.5547218,-3.5215485)"><path
         d="m 13.146725,13.813682 0.658214,-0.189921 0.08895,-1.025235 H 12.72301 L 12.6939,12.257341 h 1.229098 l 0.03234,-0.334462 h -1.617233 l 0.09056,1.010109 h 1.114274 l -0.0372,0.433624 -0.359026,0.100843 -0.359025,-0.100843 -0.02264,-0.278999 h -0.323447 l 0.0469,0.536148 0.658214,0.189921 M 11.86426,11.366563 h 2.564931 l -0.231264,2.722756 -1.051202,0.302528 -1.051201,-0.302528 z"
         fill="#e44d26"
         id="path544"
         style="stroke-width:0.164867" /></g></g></svg>
