<?xml version="1.0" encoding="UTF-8" standalone="no"?>
<!-- Created with Inkscape (http://www.inkscape.org/) -->

<svg
   width="16"
   height="16"
   viewBox="0 0 16 16"
   version="1.1"
   id="svg5"
   xml:space="preserve"
   inkscape:version="1.2 (dc2aedaf03, 2022-05-15)"
   sodipodi:docname="icon_16.svg"
   inkscape:export-filename="icon_16.png"
   inkscape:export-xdpi="96"
   inkscape:export-ydpi="96"
   xmlns:inkscape="http://www.inkscape.org/namespaces/inkscape"
   xmlns:sodipodi="http://sodipodi.sourceforge.net/DTD/sodipodi-0.dtd"
   xmlns="http://www.w3.org/2000/svg"
   xmlns:svg="http://www.w3.org/2000/svg"><sodipodi:namedview
     id="namedview7"
     pagecolor="#505050"
     bordercolor="#eeeeee"
     borderopacity="1"
     inkscape:showpageshadow="0"
     inkscape:pageopacity="0"
     inkscape:pagecheckerboard="0"
     inkscape:deskcolor="#505050"
     inkscape:document-units="px"
     showgrid="false"
     inkscape:zoom="32"
     inkscape:cx="0.140625"
     inkscape:cy="11.859375"
     inkscape:window-width="1920"
     inkscape:window-height="1058"
     inkscape:window-x="-8"
     inkscape:window-y="-8"
     inkscape:window-maximized="1"
     inkscape:current-layer="layer1" /><defs
     id="defs2" /><g
     inkscape:label="Calque 1"
     inkscape:groupmode="layer"
     id="layer1"><rect
       style="fill:#ffffff;fill-opacity:0.770335;stroke:#000000;stroke-width:0.936752"
       id="rect505"
       width="15.052989"
       height="15.059761"
       x="0.4741483"
       y="0.470153"
       ry="0.81957883" /><ellipse
       cx="8.0035439"
       cy="7.9861484"
       style="fill:#3776ab;stroke-width:0.0137999"
       id="circle507"
       rx="7.0564456"
       ry="7.0747137" /><path
       d="m 7.977675,4.4689104 c -1.7902974,0 -1.6786622,0.7779421 -1.6786622,0.7779421 L 6.300391,6.053812 H 8.0093739 V 6.2956235 H 5.6223107 c 0,0 -1.1452942,-0.1298873 -1.1452942,1.6816263 0,1.8115136 1.0005819,1.7465699 1.0005819,1.7465699 H 6.0743642 V 8.8836975 c 0,0 -0.031699,-1.0031723 0.9840434,-1.0031723 h 1.6952008 c 0,0 0.9523445,0.0152 0.9523445,-0.9230291 V 5.407139 c 0,0 0.143334,-0.9382286 -1.7282779,-0.9382286 z M 7.0363562,5.0119499 c 0.1695201,0 0.3073413,0.138178 0.3073413,0.3081369 0,0.169959 -0.1378212,0.308137 -0.3073413,0.308137 -0.1695201,0 -0.3073413,-0.138178 -0.3073413,-0.308137 0,-0.1699589 0.136443,-0.3081369 0.3073413,-0.3081369 z m 0.9923126,6.4916021 c 1.7902974,0 1.6786623,-0.777942 1.6786623,-0.777942 L 9.7059529,9.9186507 H 7.99697 V 9.6768392 h 2.387063 c 0,0 1.145294,0.1298873 1.145294,-1.6816263 0,-1.8115136 -1.000582,-1.7465699 -1.000582,-1.7465699 H 9.9319796 v 0.8401222 c 0,0 0.031699,1.0031723 -0.9840433,1.0031723 H 7.2527355 c 0,0 -0.9523445,-0.0152 -0.9523445,0.9230291 v 1.5503574 c 0,0 -0.1419558,0.938228 1.7282778,0.938228 z m 0.9426971,-0.543039 c -0.1695201,0 -0.3073413,-0.138178 -0.3073413,-0.308137 0,-0.169959 0.1378212,-0.308137 0.3073413,-0.308137 0.16952,0 0.3073412,0.138178 0.3073412,0.308137 0,0.171341 -0.1378212,0.308137 -0.3073412,0.308137 z"
       style="fill:#ffffff;stroke-width:0.0137999"
       id="path509" /><g
       inkscape:label="Clip"
       id="use539"
       transform="translate(-0.37565056,0.0441942)"><path
         d="m 13.146725,13.813682 0.658214,-0.189921 0.08895,-1.025235 H 12.72301 L 12.6939,12.257341 h 1.229098 l 0.03234,-0.334462 h -1.617233 l 0.09056,1.010109 h 1.114274 l -0.0372,0.433624 -0.359026,0.100843 -0.359025,-0.100843 -0.02264,-0.278999 h -0.323447 l 0.0469,0.536148 0.658214,0.189921 M 11.86426,11.366563 h 2.564931 l -0.231264,2.722756 -1.051202,0.302528 -1.051201,-0.302528 z"
         fill="#e44d26"
         id="path544"
         style="stroke-width:0.164867" /></g><rect
       style="fill:#333333;fill-opacity:1;stroke:#3776ab;stroke-width:0;stroke-dasharray:none;stroke-opacity:1"
       id="rect2793"
       width="4.3199806"
       height="0.69605476"
       x="10.683941"
       y="0.13258426"
       ry="0.34802738" /><rect
       style="fill:#ffffff;fill-opacity:0;stroke:#ffffff;stroke-width:0.1;stroke-dasharray:none;stroke-opacity:1"
       id="rect2899"
       width="0.86164337"
       height="0.41970167"
       x="12.571612"
       y="0.26389614"
       ry="0.053416576" /><rect
       style="fill:#ffffff;fill-opacity:0;stroke:#ffffff;stroke-width:0.193513;stroke-dasharray:none;stroke-opacity:1"
       id="rect3443"
       width="0.87679869"
       height="0.0017986757"
       x="10.940589"
       y="0.48927757"
       ry="0.00089933787" /><g
       id="g4228"
       transform="translate(-0.0078125,-0.015625)"
       style="fill:#fffff0;fill-opacity:0.90909094"><path
         style="fill:#fffff0;stroke:#000000;stroke-width:0.1;stroke-linecap:butt;stroke-linejoin:miter;stroke-dasharray:none;stroke-opacity:1;fill-opacity:0.90909094"
         d="m 14.142136,0.26516504 0.464038,0.4308932"
         id="path4222" /><path
         style="fill:#fffff0;stroke:#000000;stroke-width:0.1;stroke-linecap:butt;stroke-linejoin:miter;stroke-dasharray:none;stroke-opacity:1;fill-opacity:0.90909094"
         d="M 14.586018,0.24531622 14.162292,0.71590706"
         id="path4224" /></g></g></svg>
